<svg width="180" height="498" viewBox="0 0 180 498" fill="none" xmlns="http://www.w3.org/2000/svg">
<g filter="url(#filter0_iii_2013_90)">
<path d="M81.5518 427.999C165.108 322.751 32.9591 244.529 81.3662 75.0396" stroke="#F9ABD6" stroke-width="140" stroke-linecap="round" stroke-linejoin="round"/>
</g>
<path d="M48.0003 11.3826C48.0003 11.3826 78.2166 -5.49308 75.2491 29.7261" stroke="#242121" stroke-width="2.5" stroke-linecap="round"/>
<path d="M102.821 24.74C102.821 24.74 121.83 -4.05798 138 27.3823" stroke="#242121" stroke-width="2.5" stroke-linecap="round"/>
<path d="M80.0054 70.1569C78.6432 79.8466 74.645 88.2088 69.3075 93.8991C63.9688 99.5907 57.3262 102.578 50.6408 101.639C43.9554 100.699 38.3941 95.9953 34.8316 89.0524C31.2699 82.111 29.7324 72.9705 31.0946 63.2808C32.4568 53.5911 36.4549 45.2289 41.7925 39.5386C47.1312 33.8471 53.7737 30.8593 60.4592 31.7992C67.1446 32.739 72.7058 37.4425 76.2683 44.3854C79.8301 51.3268 81.3676 60.4672 80.0054 70.1569Z" fill="white" stroke="black"/>
<path fill-rule="evenodd" clip-rule="evenodd" d="M60.0103 57.6553L66.8408 54.7587C66.3651 47.0015 61.1247 40.5257 53.9181 39.5125C45.5497 38.336 37.6989 44.9712 36.3828 54.3324C35.0668 63.6937 40.7838 72.2363 49.1523 73.4128C56.3582 74.4258 63.1804 69.6468 65.777 62.3226L60.0103 57.6553ZM48.0359 49.6857C50.0217 49.9649 51.8577 48.5814 52.1369 46.5957C52.416 44.61 51.0326 42.7739 49.0469 42.4947C47.0611 42.2156 45.2251 43.599 44.9459 45.5848C44.6668 47.5705 46.0502 49.4065 48.0359 49.6857Z" fill="#18083F"/>
<path d="M133.187 76.1158C131.884 85.3875 127.882 93.3654 122.488 98.7726C117.095 104.18 110.336 106.996 103.486 106.033C96.6356 105.07 90.9157 100.499 87.2222 93.8148C83.5286 87.13 81.8811 78.3579 83.1846 69.0862C84.4881 59.8144 88.4903 51.8366 93.8839 46.4294C99.2773 41.0223 106.036 38.2059 112.886 39.1689C119.736 40.132 125.456 44.7027 129.15 51.3872C132.843 58.0719 134.491 66.8441 133.187 76.1158Z" fill="white" stroke="black"/>
<path fill-rule="evenodd" clip-rule="evenodd" d="M105.572 62.3587L110.954 59.309C110.816 51.7 106.946 45.4919 101.388 44.7106C94.9348 43.8033 88.6503 50.5573 87.3515 59.796C86.0527 69.0347 90.2314 77.2596 96.6849 78.1669C102.242 78.9481 107.674 74.0487 109.905 66.7738L105.572 62.3587ZM96.525 54.883C98.0563 55.0982 99.521 53.6841 99.7965 51.7244C100.072 49.7647 99.054 48.0015 97.5227 47.7862C95.9913 47.5709 94.5266 48.985 94.2511 50.9448C93.9756 52.9045 94.9936 54.6677 96.525 54.883Z" fill="#18083F"/>
<path d="M108.923 103.382C108.923 103.382 86.0487 133.024 51.0001 114.605" stroke="#242121" stroke-width="2.5" stroke-linecap="round"/>
<path d="M112.022 104.92L115.694 103.614L118.319 102.27M112.022 104.92L108.003 105.251L105.076 105.743M112.022 104.92L105.076 105.743M112.022 104.92L113.062 107.844M105.076 105.743L103.188 109.159M118.319 102.27L119.193 101.821L122.519 99.541L124.009 97.9134M118.319 102.27L122.242 104.58M118.319 102.27L124.009 97.9134M124.009 97.9134L124.753 97.0996L126.07 94.9847L127.102 93.7241L135.198 94.4837M124.009 97.9134L130.903 99.8537" stroke="black"/>
<path d="M48.8153 101.617L45.3269 100.184L42.8533 98.762M48.8153 101.617L52.6839 102.124L55.4904 102.736M48.8153 101.617L55.4904 102.736M48.8153 101.617L47.6742 104.395M55.4904 102.736L57.1558 106.125M42.8533 98.762L42.0287 98.288L38.9207 95.9292L37.5569 94.2868M42.8533 98.762L38.9534 100.812M42.8533 98.762L37.5569 94.2868M37.5569 94.2868L36.875 93.4656L35.7014 91.3603L34.7623 90.0938L26.9017 90.4508M37.5569 94.2868L30.803 95.8409" stroke="black"/>
<defs>
<filter id="filter0_iii_2013_90" x="-69.5956" y="-29.9785" width="249.563" height="549.981" filterUnits="userSpaceOnUse" color-interpolation-filters="sRGB">
<feFlood flood-opacity="0" result="BackgroundImageFix"/>
<feBlend mode="normal" in="SourceGraphic" in2="BackgroundImageFix" result="shape"/>
<feColorMatrix in="SourceAlpha" type="matrix" values="0 0 0 0 0 0 0 0 0 0 0 0 0 0 0 0 0 0 127 0" result="hardAlpha"/>
<feOffset/>
<feGaussianBlur stdDeviation="15"/>
<feComposite in2="hardAlpha" operator="arithmetic" k2="-1" k3="1"/>
<feColorMatrix type="matrix" values="0 0 0 0 1 0 0 0 0 1 0 0 0 0 1 0 0 0 0.9 0"/>
<feBlend mode="normal" in2="shape" result="effect1_innerShadow_2013_90"/>
<feColorMatrix in="SourceAlpha" type="matrix" values="0 0 0 0 0 0 0 0 0 0 0 0 0 0 0 0 0 0 127 0" result="hardAlpha"/>
<feOffset dy="22"/>
<feGaussianBlur stdDeviation="20.5"/>
<feComposite in2="hardAlpha" operator="arithmetic" k2="-1" k3="1"/>
<feColorMatrix type="matrix" values="0 0 0 0 0.957667 0 0 0 0 0.470833 0 0 0 0 1 0 0 0 1 0"/>
<feBlend mode="normal" in2="effect1_innerShadow_2013_90" result="effect2_innerShadow_2013_90"/>
<feColorMatrix in="SourceAlpha" type="matrix" values="0 0 0 0 0 0 0 0 0 0 0 0 0 0 0 0 0 0 127 0" result="hardAlpha"/>
<feOffset dx="-70" dy="-35"/>
<feGaussianBlur stdDeviation="35"/>
<feComposite in2="hardAlpha" operator="arithmetic" k2="-1" k3="1"/>
<feColorMatrix type="matrix" values="0 0 0 0 0.121833 0 0 0 0 0 0 0 0 0 0.609167 0 0 0 0.55 0"/>
<feBlend mode="normal" in2="effect2_innerShadow_2013_90" result="effect3_innerShadow_2013_90"/>
</filter>
</defs>
</svg>
