<svg width="58" height="85" viewBox="0 0 58 85" fill="none" xmlns="http://www.w3.org/2000/svg">
<g filter="url(#filter0_ii_2002_34)">
<path d="M11.4413 49.2984C11.5429 48.9861 11.786 48.7452 12.1008 48.6517C14.1197 48.0523 21.8464 45.7713 27.1384 44.3903C36.6645 41.9043 51.0502 39.0078 55.4365 38.1394C56.0942 38.0092 56.6766 38.5487 56.579 39.212C56.1616 42.0485 54.9109 48.7337 52.004 52.4781C47.7987 57.895 43.4919 60.0075 36.1071 62.3359C27.4959 65.051 12.5457 63.1764 8.323 62.5644C7.71764 62.4766 7.35322 61.8669 7.54242 61.2853L11.4413 49.2984Z" fill="url(#paint0_linear_2002_34)"/>
</g>
<g filter="url(#filter1_ii_2002_34)">
<path d="M13.5096 37.6314C13.5692 37.5117 13.6466 37.41 13.7483 37.3232C14.9649 36.2854 23.3775 29.1476 28.3199 25.9815C36.0819 21.0092 44.4223 14.4818 47.6429 11.9107C48.2513 11.4249 49.1523 11.782 49.2433 12.5552C49.7173 16.5849 50.6531 26.5065 49.0199 31.0415C46.6964 37.4935 43.4999 41.1615 33.8399 44.8415C25.6668 47.9551 14.6802 45.9263 11.1006 45.125C10.484 44.9869 10.183 44.313 10.4646 43.7475L13.5096 37.6314Z" fill="url(#paint1_linear_2002_34)"/>
</g>
<g filter="url(#filter2_ii_2002_34)">
<path d="M16.3806 66.3698C16.4884 66.0383 16.7576 65.7877 17.097 65.7078C18.8214 65.3019 24.2842 64.0265 28.0723 63.2586C34.9729 61.8597 45.3316 60.3174 48.8549 59.805C49.4862 59.7132 50.0263 60.227 49.9399 60.8591C49.6586 62.917 48.8709 67.0598 46.9052 69.3843C43.898 72.9404 40.7281 74.2573 35.2588 75.6397C29.0448 77.2104 18.2095 75.674 14.7182 75.1087C14.1213 75.0121 13.7662 74.4077 13.9532 73.8327L16.3806 66.3698Z" fill="url(#paint2_linear_2002_34)"/>
</g>
<g filter="url(#filter3_i_2002_34)">
<path d="M5.01178 29.1751C4.95649 28.883 5.03109 28.585 5.22093 28.3561C6.36608 26.9757 10.5846 21.9079 13.5516 18.5772C18.7322 12.7613 26.7766 4.74238 29.6706 1.88155C30.1825 1.37548 31.0314 1.56799 31.2594 2.2508C32.1438 4.90034 33.8384 10.6659 33.4043 14.8197C32.7543 21.0403 30.7177 24.5832 26.7094 29.5931C22.1642 35.2741 11.8789 39.8931 8.49473 41.3065C7.91924 41.5469 7.28566 41.1893 7.16968 40.5765L5.01178 29.1751Z" fill="url(#paint3_linear_2002_34)"/>
</g>
<defs>
<filter id="filter0_ii_2002_34" x="7.49219" y="38.1199" width="49.0977" height="25.6458" filterUnits="userSpaceOnUse" color-interpolation-filters="sRGB">
<feFlood flood-opacity="0" result="BackgroundImageFix"/>
<feBlend mode="normal" in="SourceGraphic" in2="BackgroundImageFix" result="shape"/>
<feColorMatrix in="SourceAlpha" type="matrix" values="0 0 0 0 0 0 0 0 0 0 0 0 0 0 0 0 0 0 127 0" result="hardAlpha"/>
<feOffset dx="-2"/>
<feComposite in2="hardAlpha" operator="arithmetic" k2="-1" k3="1"/>
<feColorMatrix type="matrix" values="0 0 0 0 0 0 0 0 0 0 0 0 0 0 0 0 0 0 0.4 0"/>
<feBlend mode="normal" in2="shape" result="effect1_innerShadow_2002_34"/>
<feColorMatrix in="SourceAlpha" type="matrix" values="0 0 0 0 0 0 0 0 0 0 0 0 0 0 0 0 0 0 127 0" result="hardAlpha"/>
<feOffset dy="1"/>
<feComposite in2="hardAlpha" operator="arithmetic" k2="-1" k3="1"/>
<feColorMatrix type="matrix" values="0 0 0 0 0 0 0 0 0 0 0 0 0 0 0 0 0 0 0.4 0"/>
<feBlend mode="normal" in2="effect1_innerShadow_2002_34" result="effect2_innerShadow_2002_34"/>
</filter>
<filter id="filter1_ii_2002_34" x="10.3584" y="11.6892" width="39.5845" height="34.8281" filterUnits="userSpaceOnUse" color-interpolation-filters="sRGB">
<feFlood flood-opacity="0" result="BackgroundImageFix"/>
<feBlend mode="normal" in="SourceGraphic" in2="BackgroundImageFix" result="shape"/>
<feColorMatrix in="SourceAlpha" type="matrix" values="0 0 0 0 0 0 0 0 0 0 0 0 0 0 0 0 0 0 127 0" result="hardAlpha"/>
<feOffset dx="-2"/>
<feComposite in2="hardAlpha" operator="arithmetic" k2="-1" k3="1"/>
<feColorMatrix type="matrix" values="0 0 0 0 0 0 0 0 0 0 0 0 0 0 0 0 0 0 0.4 0"/>
<feBlend mode="normal" in2="shape" result="effect1_innerShadow_2002_34"/>
<feColorMatrix in="SourceAlpha" type="matrix" values="0 0 0 0 0 0 0 0 0 0 0 0 0 0 0 0 0 0 127 0" result="hardAlpha"/>
<feOffset dy="1"/>
<feComposite in2="hardAlpha" operator="arithmetic" k2="-1" k3="1"/>
<feColorMatrix type="matrix" values="0 0 0 0 0 0 0 0 0 0 0 0 0 0 0 0 0 0 0.4 0"/>
<feBlend mode="normal" in2="effect1_innerShadow_2002_34" result="effect2_innerShadow_2002_34"/>
</filter>
<filter id="filter2_ii_2002_34" x="13.9031" y="59.7944" width="36.0459" height="16.5322" filterUnits="userSpaceOnUse" color-interpolation-filters="sRGB">
<feFlood flood-opacity="0" result="BackgroundImageFix"/>
<feBlend mode="normal" in="SourceGraphic" in2="BackgroundImageFix" result="shape"/>
<feColorMatrix in="SourceAlpha" type="matrix" values="0 0 0 0 0 0 0 0 0 0 0 0 0 0 0 0 0 0 127 0" result="hardAlpha"/>
<feOffset dx="3"/>
<feComposite in2="hardAlpha" operator="arithmetic" k2="-1" k3="1"/>
<feColorMatrix type="matrix" values="0 0 0 0 0 0 0 0 0 0 0 0 0 0 0 0 0 0 0.4 0"/>
<feBlend mode="normal" in2="shape" result="effect1_innerShadow_2002_34"/>
<feColorMatrix in="SourceAlpha" type="matrix" values="0 0 0 0 0 0 0 0 0 0 0 0 0 0 0 0 0 0 127 0" result="hardAlpha"/>
<feOffset dx="-1" dy="-1"/>
<feComposite in2="hardAlpha" operator="arithmetic" k2="-1" k3="1"/>
<feColorMatrix type="matrix" values="0 0 0 0 0 0 0 0 0 0 0 0 0 0 0 0 0 0 0.4 0"/>
<feBlend mode="normal" in2="effect1_innerShadow_2002_34" result="effect2_innerShadow_2002_34"/>
</filter>
<filter id="filter3_i_2002_34" x="4.9939" y="1.5957" width="28.4802" height="39.7864" filterUnits="userSpaceOnUse" color-interpolation-filters="sRGB">
<feFlood flood-opacity="0" result="BackgroundImageFix"/>
<feBlend mode="normal" in="SourceGraphic" in2="BackgroundImageFix" result="shape"/>
<feColorMatrix in="SourceAlpha" type="matrix" values="0 0 0 0 0 0 0 0 0 0 0 0 0 0 0 0 0 0 127 0" result="hardAlpha"/>
<feOffset dx="-2"/>
<feComposite in2="hardAlpha" operator="arithmetic" k2="-1" k3="1"/>
<feColorMatrix type="matrix" values="0 0 0 0 0 0 0 0 0 0 0 0 0 0 0 0 0 0 0.4 0"/>
<feBlend mode="normal" in2="shape" result="effect1_innerShadow_2002_34"/>
</filter>
<linearGradient id="paint0_linear_2002_34" x1="38.3822" y1="31.9057" x2="-6.23794" y2="75.8052" gradientUnits="userSpaceOnUse">
<stop stop-color="#7E0078"/>
<stop offset="1" stop-color="#DD02D1"/>
</linearGradient>
<linearGradient id="paint1_linear_2002_34" x1="33.8399" y1="13.1015" x2="4.98653" y2="68.6497" gradientUnits="userSpaceOnUse">
<stop stop-color="#7E0078"/>
<stop offset="1" stop-color="#B261D5"/>
</linearGradient>
<linearGradient id="paint2_linear_2002_34" x1="36.1652" y1="55.1034" x2="7.13677" y2="86.626" gradientUnits="userSpaceOnUse">
<stop stop-color="#7E0078"/>
<stop offset="1" stop-color="#DD02D1"/>
</linearGradient>
<linearGradient id="paint3_linear_2002_34" x1="16.0872" y1="3.59054" x2="-4.05471" y2="55.373" gradientUnits="userSpaceOnUse">
<stop stop-color="#7E0078"/>
<stop offset="1" stop-color="#DD02D1"/>
</linearGradient>
</defs>
</svg>
