<svg width="57" height="85" viewBox="0 0 57 85" fill="none" xmlns="http://www.w3.org/2000/svg">
<g filter="url(#filter0_ii_2002_39)">
<path d="M46.1895 49.2984C46.088 48.9861 45.8448 48.7452 45.53 48.6517C43.5111 48.0523 35.7841 45.7713 30.492 44.3903C20.9656 41.9043 6.57948 39.0078 2.19312 38.1394C1.5354 38.0092 0.953049 38.5487 1.05067 39.212C1.4681 42.0485 2.71875 48.7337 5.62574 52.4781C9.83115 57.895 14.1381 60.0075 21.5231 62.3359C30.1345 65.051 45.0851 63.1764 49.3079 62.5644C49.9133 62.4766 50.2777 61.867 50.0885 61.2853L46.1895 49.2984Z" fill="url(#paint0_linear_2002_39)"/>
</g>
<g filter="url(#filter1_ii_2002_39)">
<path d="M44.1211 37.6314C44.0615 37.5117 43.9842 37.41 43.8825 37.3232C42.6659 36.2854 34.253 29.1476 29.3105 25.9815C21.5482 21.0091 13.2076 14.4818 9.98693 11.9106C9.37852 11.4249 8.47755 11.7819 8.3866 12.5551C7.91255 16.5849 6.9767 26.5065 8.60993 31.0415C10.9335 37.4935 14.1301 41.1615 23.7903 44.8415C31.9637 47.9551 42.9505 45.9263 46.5303 45.125C47.1468 44.9869 47.4478 44.313 47.1662 43.7474L44.1211 37.6314Z" fill="url(#paint1_linear_2002_39)"/>
</g>
<g filter="url(#filter2_ii_2002_39)">
<path d="M41.2502 66.3698C41.1423 66.0383 40.8731 65.7877 40.5337 65.7078C38.8093 65.3019 33.3463 64.0265 29.5582 63.2586C22.6573 61.8597 12.2983 60.3174 8.77494 59.805C8.14364 59.7132 7.60354 60.227 7.68996 60.8591C7.97131 62.9169 8.75904 67.0598 10.7248 69.3843C13.7321 72.9404 16.902 74.2573 22.3714 75.6397C28.5857 77.2104 39.4213 75.674 42.9126 75.1087C43.5095 75.0121 43.8647 74.4077 43.6776 73.8327L41.2502 66.3698Z" fill="url(#paint2_linear_2002_39)"/>
</g>
<g filter="url(#filter3_i_2002_39)">
<path d="M52.6192 29.1734C52.6745 28.8813 52.5999 28.5833 52.4101 28.3544C51.2649 26.974 47.0462 21.9062 44.0792 18.5755C38.8985 12.7596 30.8537 4.7406 27.9597 1.87981C27.4478 1.37374 26.5989 1.56626 26.3709 2.24907C25.4865 4.89859 23.7919 10.6641 24.226 14.818C24.876 21.0386 26.9126 24.5815 30.9211 29.5914C35.4664 35.2724 45.752 39.8914 49.1362 41.3048C49.7117 41.5451 50.3453 41.1876 50.4613 40.5748L52.6192 29.1734Z" fill="url(#paint3_linear_2002_39)"/>
</g>
<defs>
<filter id="filter0_ii_2002_39" x="1.04004" y="38.1199" width="49.0986" height="25.6458" filterUnits="userSpaceOnUse" color-interpolation-filters="sRGB">
<feFlood flood-opacity="0" result="BackgroundImageFix"/>
<feBlend mode="normal" in="SourceGraphic" in2="BackgroundImageFix" result="shape"/>
<feColorMatrix in="SourceAlpha" type="matrix" values="0 0 0 0 0 0 0 0 0 0 0 0 0 0 0 0 0 0 127 0" result="hardAlpha"/>
<feOffset dx="-2"/>
<feComposite in2="hardAlpha" operator="arithmetic" k2="-1" k3="1"/>
<feColorMatrix type="matrix" values="0 0 0 0 0 0 0 0 0 0 0 0 0 0 0 0 0 0 0.4 0"/>
<feBlend mode="normal" in2="shape" result="effect1_innerShadow_2002_39"/>
<feColorMatrix in="SourceAlpha" type="matrix" values="0 0 0 0 0 0 0 0 0 0 0 0 0 0 0 0 0 0 127 0" result="hardAlpha"/>
<feOffset dy="1"/>
<feComposite in2="hardAlpha" operator="arithmetic" k2="-1" k3="1"/>
<feColorMatrix type="matrix" values="0 0 0 0 0 0 0 0 0 0 0 0 0 0 0 0 0 0 0.4 0"/>
<feBlend mode="normal" in2="effect1_innerShadow_2002_39" result="effect2_innerShadow_2002_39"/>
</filter>
<filter id="filter1_ii_2002_39" x="7.68701" y="11.6892" width="39.5854" height="34.8281" filterUnits="userSpaceOnUse" color-interpolation-filters="sRGB">
<feFlood flood-opacity="0" result="BackgroundImageFix"/>
<feBlend mode="normal" in="SourceGraphic" in2="BackgroundImageFix" result="shape"/>
<feColorMatrix in="SourceAlpha" type="matrix" values="0 0 0 0 0 0 0 0 0 0 0 0 0 0 0 0 0 0 127 0" result="hardAlpha"/>
<feOffset dx="-2"/>
<feComposite in2="hardAlpha" operator="arithmetic" k2="-1" k3="1"/>
<feColorMatrix type="matrix" values="0 0 0 0 0 0 0 0 0 0 0 0 0 0 0 0 0 0 0.4 0"/>
<feBlend mode="normal" in2="shape" result="effect1_innerShadow_2002_39"/>
<feColorMatrix in="SourceAlpha" type="matrix" values="0 0 0 0 0 0 0 0 0 0 0 0 0 0 0 0 0 0 127 0" result="hardAlpha"/>
<feOffset dy="1"/>
<feComposite in2="hardAlpha" operator="arithmetic" k2="-1" k3="1"/>
<feColorMatrix type="matrix" values="0 0 0 0 0 0 0 0 0 0 0 0 0 0 0 0 0 0 0.4 0"/>
<feBlend mode="normal" in2="effect1_innerShadow_2002_39" result="effect2_innerShadow_2002_39"/>
</filter>
<filter id="filter2_ii_2002_39" x="7.68091" y="59.7944" width="36.0469" height="16.5322" filterUnits="userSpaceOnUse" color-interpolation-filters="sRGB">
<feFlood flood-opacity="0" result="BackgroundImageFix"/>
<feBlend mode="normal" in="SourceGraphic" in2="BackgroundImageFix" result="shape"/>
<feColorMatrix in="SourceAlpha" type="matrix" values="0 0 0 0 0 0 0 0 0 0 0 0 0 0 0 0 0 0 127 0" result="hardAlpha"/>
<feOffset dx="3"/>
<feComposite in2="hardAlpha" operator="arithmetic" k2="-1" k3="1"/>
<feColorMatrix type="matrix" values="0 0 0 0 0 0 0 0 0 0 0 0 0 0 0 0 0 0 0.4 0"/>
<feBlend mode="normal" in2="shape" result="effect1_innerShadow_2002_39"/>
<feColorMatrix in="SourceAlpha" type="matrix" values="0 0 0 0 0 0 0 0 0 0 0 0 0 0 0 0 0 0 127 0" result="hardAlpha"/>
<feOffset dx="-1" dy="-1"/>
<feComposite in2="hardAlpha" operator="arithmetic" k2="-1" k3="1"/>
<feColorMatrix type="matrix" values="0 0 0 0 0 0 0 0 0 0 0 0 0 0 0 0 0 0 0.4 0"/>
<feBlend mode="normal" in2="effect1_innerShadow_2002_39" result="effect2_innerShadow_2002_39"/>
</filter>
<filter id="filter3_i_2002_39" x="24.156" y="1.59399" width="28.481" height="39.7864" filterUnits="userSpaceOnUse" color-interpolation-filters="sRGB">
<feFlood flood-opacity="0" result="BackgroundImageFix"/>
<feBlend mode="normal" in="SourceGraphic" in2="BackgroundImageFix" result="shape"/>
<feColorMatrix in="SourceAlpha" type="matrix" values="0 0 0 0 0 0 0 0 0 0 0 0 0 0 0 0 0 0 127 0" result="hardAlpha"/>
<feOffset dx="-2"/>
<feComposite in2="hardAlpha" operator="arithmetic" k2="-1" k3="1"/>
<feColorMatrix type="matrix" values="0 0 0 0 0 0 0 0 0 0 0 0 0 0 0 0 0 0 0.4 0"/>
<feBlend mode="normal" in2="shape" result="effect1_innerShadow_2002_39"/>
</filter>
<linearGradient id="paint0_linear_2002_39" x1="19.2479" y1="31.9057" x2="63.8681" y2="75.8063" gradientUnits="userSpaceOnUse">
<stop stop-color="#7E0078"/>
<stop offset="1" stop-color="#DD02D1"/>
</linearGradient>
<linearGradient id="paint1_linear_2002_39" x1="23.7903" y1="13.1015" x2="52.6433" y2="68.6503" gradientUnits="userSpaceOnUse">
<stop stop-color="#7E0078"/>
<stop offset="1" stop-color="#DD02D1"/>
</linearGradient>
<linearGradient id="paint2_linear_2002_39" x1="21.465" y1="55.1034" x2="50.4934" y2="86.6268" gradientUnits="userSpaceOnUse">
<stop stop-color="#7E0078"/>
<stop offset="1" stop-color="#DD02D1"/>
</linearGradient>
<linearGradient id="paint3_linear_2002_39" x1="41.5436" y1="3.58883" x2="61.685" y2="55.3716" gradientUnits="userSpaceOnUse">
<stop stop-color="#7E0078"/>
<stop offset="1" stop-color="#DD02D1"/>
</linearGradient>
</defs>
</svg>
