<svg width="38" height="38" viewBox="0 0 38 38" fill="none" xmlns="http://www.w3.org/2000/svg">
<path d="M28.9193 7.2957C25.4236 3.79999 19.7311 3.79999 16.2391 7.2957L6.55352 16.9738C6.49043 17.0369 6.45703 17.1223 6.45703 17.2113C6.45703 17.3004 6.49043 17.3857 6.55352 17.4488L7.92285 18.8182C7.98544 18.8805 8.07017 18.9155 8.1585 18.9155C8.24682 18.9155 8.33155 18.8805 8.39414 18.8182L18.0797 9.14003C19.282 7.93769 20.8814 7.27714 22.5811 7.27714C24.2807 7.27714 25.8801 7.93769 27.0787 9.14003C28.2811 10.3424 28.9416 11.9418 28.9416 13.6377C28.9416 15.3373 28.2811 16.933 27.0787 18.1353L17.2076 28.0027L15.6082 29.6021C14.1127 31.0977 11.682 31.0977 10.1865 29.6021C9.46289 28.8785 9.06582 27.9174 9.06582 26.8932C9.06582 25.8689 9.46289 24.9078 10.1865 24.1842L19.9797 14.3947C20.2283 14.1498 20.5549 14.0125 20.9037 14.0125H20.9074C21.2563 14.0125 21.5791 14.1498 21.824 14.3947C22.0727 14.6434 22.2063 14.9699 22.2063 15.3187C22.2063 15.6639 22.0689 15.9904 21.824 16.2353L13.8195 24.2324C13.7564 24.2955 13.723 24.3809 13.723 24.4699C13.723 24.559 13.7564 24.6443 13.8195 24.7074L15.1889 26.0768C15.2515 26.1391 15.3362 26.1741 15.4245 26.1741C15.5128 26.1741 15.5976 26.1391 15.6602 26.0768L23.6609 18.076C24.3994 17.3375 24.8039 16.3578 24.8039 15.315C24.8039 14.2723 24.3957 13.2889 23.6609 12.5541C22.1357 11.0289 19.6568 11.0326 18.1316 12.5541L17.1816 13.5078L8.34219 22.3435C7.74224 22.94 7.26668 23.6496 6.94307 24.4312C6.61947 25.2128 6.45426 26.0509 6.45703 26.8969C6.45703 28.615 7.12871 30.2293 8.34219 31.4428C9.6002 32.6971 11.2479 33.3242 12.8955 33.3242C14.5432 33.3242 16.1908 32.6971 17.4451 31.4428L28.9193 19.976C30.6078 18.2838 31.543 16.0312 31.543 13.6377C31.5467 11.2404 30.6115 8.98788 28.9193 7.2957Z" fill="#333333"/>
</svg>
