<svg width="42" height="42" viewBox="0 0 42 42" fill="none" xmlns="http://www.w3.org/2000/svg">
<g clip-path="url(#clip0_2055_187)">
<path d="M20.266 7.92405L21.7001 9.13297L7.71274 25.7034L15.1887 32.698L13.9073 34.0669L5.13073 25.8559L20.266 7.92405Z" fill="black"/>
<path d="M11.0527 27.9852L24.5433 5.46709L37.324 13.124L23.8333 35.6421L11.0527 27.9852ZM23.1885 33.07L34.7519 13.7688L25.1873 8.03864L13.6239 27.3399L23.1885 33.07Z" fill="black"/>
<path d="M24.9174 20.8755L26.3851 21.7548C26.4204 21.4569 26.3078 21.1905 26.046 20.9582L26.722 20.1108C27.06 20.3985 27.2714 20.7241 27.3586 21.0857C27.4454 21.448 27.3973 21.8367 27.2142 22.2516L27.5857 22.4742L27.2692 23.0025L26.8977 22.7799C26.605 23.1718 26.2437 23.41 25.8143 23.4937C25.3841 23.5769 24.9651 23.4974 24.5541 23.2512C24.1488 23.0084 23.8703 22.6907 23.7202 22.2992C23.5684 21.9067 23.566 21.4309 23.7106 20.8705L22.1383 19.9286C22.1249 20.0987 22.159 20.2808 22.2402 20.4737C22.3217 20.6679 22.4507 20.8447 22.6283 21.0025L21.9535 21.8899C21.5038 21.5222 21.2233 21.1257 21.1097 20.7024C20.9958 20.2779 21.0397 19.8397 21.2376 19.3889L20.554 18.9794L20.8706 18.451L21.5727 18.8716C21.9259 18.4406 22.3373 18.1845 22.8073 18.1042C23.2767 18.0248 23.7374 18.1205 24.191 18.3922C24.5963 18.635 24.8654 18.9394 24.9976 19.306C25.1298 19.6727 25.1042 20.1951 24.9174 20.8755ZM24.7801 21.5113C24.7565 21.7113 24.7778 21.8837 24.8458 22.0293C24.9137 22.1749 25.0127 22.2889 25.1445 22.3679C25.2901 22.4551 25.4484 22.492 25.6193 22.4785C25.7897 22.4659 25.9434 22.4028 26.079 22.2894L24.7801 21.5113ZM22.9291 19.0811C22.7216 19.1119 22.5473 19.2075 22.4026 19.3689L23.8663 20.2458C23.9318 19.9888 23.9329 19.7753 23.8688 19.6068C23.8047 19.4384 23.6889 19.3034 23.5216 19.2032C23.3341 19.0909 23.1371 19.0495 22.9291 19.0811Z" fill="black"/>
</g>
<defs>
<clipPath id="clip0_2055_187">
<rect width="30" height="30" fill="white" transform="matrix(0.513929 -0.857832 -0.857832 -0.513929 25.735 41.1529)"/>
</clipPath>
</defs>
</svg>
