<svg width="38" height="38" viewBox="0 0 38 38" fill="none" xmlns="http://www.w3.org/2000/svg">
<path d="M14.25 14.25C13.9351 14.25 13.633 14.3751 13.4103 14.5978C13.1876 14.8205 13.0625 15.1226 13.0625 15.4375C13.0625 15.7524 12.9374 16.0545 12.7147 16.2772C12.492 16.4999 12.1899 16.625 11.875 16.625C11.5601 16.625 11.258 16.4999 11.0353 16.2772C10.8126 16.0545 10.6875 15.7524 10.6875 15.4375C10.6875 14.4927 11.0628 13.5865 11.7309 12.9184C12.399 12.2503 13.3052 11.875 14.25 11.875C15.1948 11.875 16.101 12.2503 16.7691 12.9184C17.4372 13.5865 17.8125 14.4927 17.8125 15.4375C17.8125 15.7524 17.6874 16.0545 17.4647 16.2772C17.242 16.4999 16.9399 16.625 16.625 16.625C16.3101 16.625 16.008 16.4999 15.7853 16.2772C15.5626 16.0545 15.4375 15.7524 15.4375 15.4375C15.4375 15.1226 15.3124 14.8205 15.0897 14.5978C14.867 14.3751 14.5649 14.25 14.25 14.25ZM23.75 14.25C23.4351 14.25 23.133 14.3751 22.9103 14.5978C22.6876 14.8205 22.5625 15.1226 22.5625 15.4375C22.5625 15.7524 22.4374 16.0545 22.2147 16.2772C21.992 16.4999 21.6899 16.625 21.375 16.625C21.0601 16.625 20.758 16.4999 20.5353 16.2772C20.3126 16.0545 20.1875 15.7524 20.1875 15.4375C20.1875 14.4927 20.5628 13.5865 21.2309 12.9184C21.899 12.2503 22.8052 11.875 23.75 11.875C24.6948 11.875 25.601 12.2503 26.2691 12.9184C26.9372 13.5865 27.3125 14.4927 27.3125 15.4375C27.3125 15.7524 27.1874 16.0545 26.9647 16.2772C26.742 16.4999 26.4399 16.625 26.125 16.625C25.8101 16.625 25.508 16.4999 25.2853 16.2772C25.0626 16.0545 24.9375 15.7524 24.9375 15.4375C24.9375 15.1226 24.8124 14.8205 24.5897 14.5978C24.367 14.3751 24.0649 14.25 23.75 14.25ZM10.7706 19C10.6006 19 10.4327 19.0365 10.278 19.1071C10.1234 19.1776 9.98565 19.2805 9.8742 19.4089C9.76275 19.5372 9.68015 19.688 9.63198 19.851C9.58381 20.014 9.5712 20.1854 9.595 20.3537C9.91767 22.6183 11.0466 24.6903 12.7743 26.1893C14.502 27.6883 16.7126 28.5136 19 28.5136C21.2874 28.5136 23.498 27.6883 25.2257 26.1893C26.9534 24.6903 28.0823 22.6183 28.405 20.3537C28.4288 20.1852 28.4162 20.0136 28.3678 19.8504C28.3195 19.6872 28.2367 19.5364 28.125 19.408C28.0133 19.2796 27.8753 19.1767 27.7204 19.1063C27.5654 19.036 27.3972 18.9997 27.227 19H10.7706ZM19 26.125C17.5261 26.1251 16.0884 25.6684 14.8848 24.8177C13.6811 23.9671 12.7707 22.7644 12.2788 21.375H25.7213C25.2293 22.7644 24.3189 23.9671 23.1152 24.8177C21.9116 25.6684 20.4739 26.1251 19 26.125ZM33.25 19C33.25 17.1287 32.8814 15.2757 32.1653 13.5468C31.4492 11.8179 30.3995 10.247 29.0763 8.92373C27.753 7.60049 26.1821 6.55085 24.4532 5.83472C22.7243 5.11859 20.8713 4.75 19 4.75C17.1287 4.75 15.2757 5.11859 13.5468 5.83472C11.8179 6.55085 10.247 7.60049 8.92373 8.92373C7.60049 10.247 6.55085 11.8179 5.83472 13.5468C5.11859 15.2757 4.75 17.1287 4.75 19C4.75 22.7793 6.25133 26.4039 8.92373 29.0763C11.5961 31.7487 15.2207 33.25 19 33.25C22.7793 33.25 26.4039 31.7487 29.0763 29.0763C31.7487 26.4039 33.25 22.7793 33.25 19ZM7.125 19C7.125 15.8506 8.37611 12.8301 10.6031 10.6031C12.8301 8.37611 15.8506 7.125 19 7.125C22.1494 7.125 25.1699 8.37611 27.3969 10.6031C29.6239 12.8301 30.875 15.8506 30.875 19C30.875 22.1494 29.6239 25.1699 27.3969 27.3969C25.1699 29.6239 22.1494 30.875 19 30.875C15.8506 30.875 12.8301 29.6239 10.6031 27.3969C8.37611 25.1699 7.125 22.1494 7.125 19Z" fill="#333333"/>
</svg>
