<svg width="65" height="65" viewBox="0 0 65 65" fill="none" xmlns="http://www.w3.org/2000/svg">
<g clip-path="url(#clip0_2007_74)">
<path d="M15.7585 27.3727C17.5634 27.1302 19.3683 27.7498 20.648 29.0294L23.8807 32.2621L26.9383 29.218L22.5202 24.8134C21.8333 24.1265 21.8333 23.0085 22.5202 22.3216C23.2072 21.6346 24.3252 21.6346 25.0121 22.3216L29.4301 26.7396L32.4877 23.6955L29.2416 20.4493C27.962 19.1697 27.3424 17.3513 27.5848 15.5598C28.1236 11.4651 26.817 7.18173 23.6786 4.02984C20.4729 0.824078 16.0818 -0.469004 11.9197 0.150598C11.2596 0.244885 10.9903 1.06653 11.4617 1.53797L15.6238 5.70008C17.6038 7.68011 17.6038 10.8859 15.6238 12.8524L13.0646 15.4117C11.0845 17.3917 7.87878 17.3917 5.91221 15.4117L1.73664 11.2496C1.2652 10.7781 0.457024 11.0475 0.349268 11.7075C-0.270334 15.8696 1.02275 20.2607 4.22851 23.4665C7.3804 26.6049 11.6637 27.9115 15.7585 27.3727Z" fill="url(#paint0_linear_2007_74)"/>
<path d="M41.6471 32.8548L38.5895 35.8989L56.7465 54.056C57.4335 54.7429 57.4335 55.8609 56.7465 56.5478C56.0596 57.2348 54.9416 57.2348 54.2547 56.5478L36.0976 38.3908L33.04 41.4349L51.7493 60.1442C54.12 62.5149 57.9588 62.5014 60.3295 60.1307C62.7001 57.7601 62.7001 53.9213 60.3429 51.5506L41.6471 32.8548Z" fill="url(#paint1_linear_2007_74)"/>
<path d="M48.6646 20.7321H56.7329L64.8012 4.60902L60.7738 0.581604L44.6372 8.63643V16.7047L22.7087 38.5659L18.7621 34.6328L2.86795 50.5269C-0.445568 53.8404 -0.445568 59.2013 2.86795 62.5148C6.18148 65.8284 11.5424 65.8284 14.8559 62.5148L30.75 46.6207L26.7226 42.5933L48.6646 20.7321Z" fill="url(#paint2_linear_2007_74)"/>
</g>
<defs>
<linearGradient id="paint0_linear_2007_74" x1="16.3432" y1="6.10352e-05" x2="16.3432" y2="32.2621" gradientUnits="userSpaceOnUse">
<stop stop-color="#CD5D12"/>
<stop offset="1" stop-color="#672F09"/>
</linearGradient>
<linearGradient id="paint1_linear_2007_74" x1="47.5746" y1="32.8548" x2="47.5746" y2="61.9155" gradientUnits="userSpaceOnUse">
<stop stop-color="#CD5D12"/>
<stop offset="1" stop-color="#672F09"/>
</linearGradient>
<linearGradient id="paint2_linear_2007_74" x1="32.592" y1="0.581604" x2="32.592" y2="65" gradientUnits="userSpaceOnUse">
<stop stop-color="#CD5D12"/>
<stop offset="1" stop-color="#672F09"/>
</linearGradient>
<clipPath id="clip0_2007_74">
<rect width="65" height="65" fill="white"/>
</clipPath>
</defs>
</svg>
